<!DOCTYPE svg PUBLIC "-//W3C//DTD SVG 1.1//EN" "http://www.w3.org/Graphics/SVG/1.1/DTD/svg11.dtd">
<!-- Uploaded to: SVG Repo, www.svgrepo.com, Transformed by: SVG Repo Mixer Tools -->
<svg width="64px" height="64px" viewBox="-11.52 -11.52 95.04 95.04" id="emoji" xmlns="http://www.w3.org/2000/svg" fill="#000000">
<g id="SVGRepo_bgCarrier" stroke-width="0">
<path transform="translate(-11.52, -11.52), scale(2.97)" d="M16,31.911904841661453C18.172446190388612,31.70638312582718,20.2113420766105,30.56110269659209,21.832856978488103,29.100811270608112C23.324779841123252,27.757226847169964,23.583032012046992,25.524680822097725,24.83515476252505,23.95520908017488C26.002991615948986,22.491385393619254,28.240890902102805,21.942236533627554,28.932340576128624,20.2019721715762C29.620904710395084,18.468970235406488,28.535668992161213,16.5489334369176,28.518743084260812,14.684227081641293C28.500090523968044,12.629297566204514,29.769741737767212,10.42034181164618,28.82697830182159,8.59434062455382C27.893460502477243,6.786246945077531,25.519831709824608,6.321213559874663,23.71535200046763,5.3807289964852565C22.093239698616568,4.535293288860363,20.4020925445015,3.9751713475965644,18.696418093199718,3.3143502509901435C16.738880950288713,2.5559512256433186,14.901446405274752,0.7345678432307263,12.847869859072823,1.1703936299994169C10.79446246361865,1.6061835182972852,9.627552896006282,3.8204996498649857,8.374844527037563,5.50487386623268C7.310662467241404,6.935758234409578,6.940163103881726,8.710593388981648,6.078799024889113,10.271991946335344C5.234039546372417,11.80329126939214,3.7586364097851943,12.97428104769236,3.3202790057721856,14.667307621519534C2.865523091251608,16.4236686201935,2.798439017493013,18.39372029271069,3.548158013786269,20.04584871570071C4.292147918140605,21.68535214762473,6.503379086299285,22.17351617003919,7.427652336170652,23.718576505639078C8.622011085904052,25.715124962436427,7.972313390277925,28.645464036287912,9.654172750566666,30.252961363070682C11.252170515853678,31.78030496655885,13.799311294129657,32.12009840744394,16,31.911904841661453" fill="#13b2e7" strokewidth="0"/>
</g>
<g id="SVGRepo_tracerCarrier" stroke-linecap="round" stroke-linejoin="round"/>
<g id="SVGRepo_iconCarrier"> <g id="color"> <path fill="#d0cfce" d="m35.71 64.65c4.779 0 7.509-2.244 8.156-5.151h-16.31c0.647 2.907 3.376 5.151 8.155 5.151z"/> <path fill="#FCEA2B" d="m45.5 10.41c-4e-4 0-12.23-3.457-18.2 1.269-5.969 4.726-7.651 15.6-7.651 15.6 0.5848 2.213 4.226 8.493 4.226 8.493 0.54 0.9111 2.253 7.981 3.249 11.86h17.17c0.8662-2.845 4.35-13.65 4.805-14.71 0.584-1.363 1.58-4.016 2.083-5.017 1.21-2.409 0.5378-4.455 0.5378-7.027 0-5.487-1.902-7.726-6.221-10.47z"/> <path fill="#ffffff" d="m35.71 7.202c-8.532 0-16.5 6.752-16.5 15.28 0 1.079-0.2641 4.491 1.217 4.491 0 0 2.393-7.825 8.362-12.55s15.52-3.725 15.52-3.725c-0.6645-2.045-5.55-3.499-8.596-3.499z"/> </g> <g id="hair"/> <g id="skin"/> <g id="skin-shadow"/> <g id="line"> <path fill="none" stroke="#000000" stroke-linecap="round" stroke-linejoin="round" stroke-miterlimit="10" stroke-width="2" d="m52.55 23.75c0 3.985-1.785 5.908-3.754 10.5-0.5028 1.172-4.211 13.38-4.211 13.38h-17.17s-2.981-11.67-3.546-12.62c-2.37-3.998-4.419-6.91-4.419-11.26 0-9.141 7.41-16.55 16.55-16.55 9.141 0 16.55 7.41 16.55 16.55z"/> <line x1="36" x2="36" y1="47.22" y2="35.28" stroke="#000000" stroke-linecap="round" stroke-linejoin="round" stroke-miterlimit="10" stroke-width="2"/> <line x1="41.97" x2="30.03" y1="35.28" y2="35.28" stroke="#000000" stroke-linecap="round" stroke-linejoin="round" stroke-miterlimit="10" stroke-width="2"/> <path fill="none" stroke="#000000" stroke-linecap="round" stroke-linejoin="round" stroke-miterlimit="10" stroke-width="1.696" d="m44.16 58.79c0 3.24-3.651 5.867-8.155 5.867-4.504 0-8.155-2.627-8.155-5.867z"/> <line x1="27.99" x2="44.01" y1="54.98" y2="51.51" stroke="#000000" stroke-linecap="round" stroke-linejoin="round" stroke-miterlimit="10" stroke-width="1.965"/> <line x1="38.2" x2="43.98" y1="56.07" y2="54.89" stroke="#000000" stroke-linecap="round" stroke-linejoin="round" stroke-miterlimit="10" stroke-width="2"/> <line x1="28.02" x2="33.8" y1="51.6" y2="50.42" stroke="#000000" stroke-linecap="round" stroke-linejoin="round" stroke-miterlimit="10" stroke-width="2"/> </g> </g>
</svg>